<mxfile host="app.diagrams.net" modified="2024-02-01T04:11:08.291Z" agent="Mozilla/5.0 (X11; Linux x86_64) AppleWebKit/537.36 (KHTML, like Gecko) Chrome/120.0.0.0 Safari/537.36" version="23.1.0" etag="XTl-xiTJ97fqGkdr-DB0" type="github">
  <diagram name="Halaman-1" id="608jiTqOg6zwmrXcihAU">
    <mxGraphModel>
      <root>
        <mxCell id="0" />
        <mxCell id="1" parent="0" />
      </root>
    </mxGraphModel>
  </diagram>
</mxfile>
